<?xml version="1.0" encoding="utf-8"?>
<!-- Generator: Adobe Illustrator 23.0.2, SVG Export Plug-In . SVG Version: 6.00 Build 0)  -->
<svg version="1.1" id="Layer_1" xmlns="http://www.w3.org/2000/svg" xmlns:xlink="http://www.w3.org/1999/xlink" x="0px" y="0px"
	 viewBox="0 0 400 200" style="enable-background:new 0 0 400 200;" xml:space="preserve">
<style type="text/css">
	.st0{opacity:8.000000e-02;clip-path:url(#XMLID_3_);}
	.st1{display:none;}
	.st2{display:inline;}
	.st3{fill:#FFFFFF;}
	.st4{fill:#F7941D;}
</style>
<g>
	<defs>
		<rect id="XMLID_1_" width="400" height="200"/>
	</defs>
	<use xlink:href="#XMLID_1_"  style="overflow:visible;fill:#FFFFFF;"/>
	<clipPath id="XMLID_3_">
		<use xlink:href="#XMLID_1_"  style="overflow:visible;"/>
	</clipPath>
	<g style="clip-path:url(#XMLID_3_);">
		
			<image style="overflow:visible;" width="5156" height="3437" xlink:href="../../../../../../Downloads/andrey-metelev-qpAOxji4dAo-unsplash.jpg"  transform="matrix(7.753744e-02 0 0 7.753744e-02 0 0)">
		</image>
	</g>
	<g style="clip-path:url(#XMLID_3_);">
		
			<image style="overflow:visible;" width="5637" height="3758" xlink:href="../../../../../../Downloads/matthew-henry-yETqkLnhsUI-unsplash.jpg"  transform="matrix(7.106062e-02 0 0 7.106062e-02 0 -51)">
		</image>
	</g>
	<rect class="st0" width="400" height="201.5"/>
</g>
<g class="st1">
	
		<image style="display:inline;overflow:visible;opacity:0.67;" width="939" height="177" xlink:href="69F237A4.png"  transform="matrix(0.24 0 0 0.24 119.52 82.56)">
	</image>
	<g class="st2">
		<path class="st3" d="M325.6,110.9H132.9c-2.3,0-4.2-1.9-4.2-4.2v-9.8c0-2.3,1.9-4.2,4.2-4.2h192.7c2.3,0,4.2,1.9,4.2,4.2v9.8
			C329.8,109,327.9,110.9,325.6,110.9z"/>
	</g>
</g>
<g class="st1">
	
		<image style="display:inline;overflow:visible;opacity:0.67;" width="775" height="404" xlink:href="69F237A6.png"  transform="matrix(0.24 0 0 0.24 110.64 53.52)">
	</image>
	<g class="st2">
		<g>
			<g>
				<path class="st3" d="M127.5,73c0-2.5,0-6,0.1-8h-0.1c-0.6,3.5-1.5,9-2.5,13.2h-3.6c-0.7-4.1-1.7-9.6-2.2-13.2h-0.2
					c0.1,1.9,0.2,5.2,0.2,8.1v5.1h-4V61.7h6.4c0.6,2.9,1.4,7.7,1.7,10h0.1c0.4-2.6,1.3-6.6,2-10h6.3v16.5h-4.3V73z"/>
				<path class="st3" d="M146.1,71.6c0,4-1.8,6.8-6.2,6.8c-4.3,0-6-2.8-6-6.7c0-3.3,1.6-6.5,6.2-6.5
					C144.6,65.2,146.1,68.3,146.1,71.6z M138.4,71.7c0,2.6,0.5,3.7,1.7,3.7c1.1,0,1.6-1.1,1.6-3.7c0-2.5-0.4-3.4-1.6-3.4
					C138.9,68.3,138.4,69.2,138.4,71.7z"/>
				<path class="st3" d="M151.6,65.5c0.6,2.9,1.3,6.5,1.6,8.7h0.1c0.3-2.3,0.9-5.1,1.6-8.7h4.3l-3.7,12.7h-5l-3.6-12.7H151.6z"/>
				<path class="st3" d="M160.5,65.5h4.4v12.7h-4.4V65.5z M160.5,60.9h4.4V64h-4.4V60.9z"/>
				<path class="st3" d="M167.3,69.4c0-2.6,0-3.4,0-4h4.3c0,0.2,0.1,0.9,0.1,1.3c0.5-0.8,1.6-1.6,3.3-1.6c2.5,0,3.7,1.7,3.7,4.3v8.6
					h-4.4v-7.9c0-1.1-0.2-1.7-1.2-1.7c-0.9,0-1.3,0.5-1.3,2.1v7.6h-4.4V69.4z"/>
				<path class="st3" d="M192.4,76.7c0,4-1.5,6.2-6.1,6.2c-4.3,0-5.5-2.2-5.6-4.1h4.3c0.1,0.6,0.5,1.1,1.5,1.1
					c1.3,0,1.6-0.8,1.6-2.7v-0.9c-0.6,1-1.7,1.4-3.1,1.4c-3,0-4.5-2.4-4.5-6.1c0-4.1,2-6.5,4.8-6.5c1.8,0,2.6,0.6,2.9,1.3
					c0-0.3,0.1-0.8,0.1-1h4.1c0,0.7,0,2.2,0,4V76.7z M185,71.6c0,2.1,0.5,3.1,1.6,3.1c1.2,0,1.6-1,1.6-3.2c0-2.2-0.1-3.1-1.5-3.1
					C185.7,68.4,185,69.2,185,71.6z"/>
				<path class="st4" d="M198.5,65.5h1.6v-3.2h4.4v3.2h1.9v3.1h-1.9v5.6c0,0.7,0.2,1.1,1.1,1.1c0.2,0,0.3,0,0.6,0V78
					c-0.7,0.2-1.9,0.3-2.4,0.3c-2.8,0-3.6-1-3.6-3.5v-6.2h-1.6V65.5z"/>
				<path class="st4" d="M219.8,71.6c0,4-1.8,6.8-6.2,6.8c-4.3,0-6-2.8-6-6.7c0-3.3,1.6-6.5,6.2-6.5
					C218.2,65.2,219.8,68.3,219.8,71.6z M212.1,71.7c0,2.6,0.5,3.7,1.7,3.7c1.1,0,1.6-1.1,1.6-3.7c0-2.5-0.4-3.4-1.6-3.4
					C212.6,68.3,212.1,69.2,212.1,71.7z"/>
				<path class="st4" d="M225.3,65.5c0.6,4.3,1,7.2,1.2,8.6h0.1c0.2-1.8,0.8-4.8,1.4-8.6h4c0.5,3.2,1.2,6.8,1.4,8.6h0.1
					c0.2-1.3,0.5-4.1,1.3-8.6h4.3l-3.3,12.7h-4.6c-0.6-3-1-5.4-1.2-7.3h-0.1c-0.2,1.7-0.8,4.6-1.4,7.3h-4.6l-3.2-12.7H225.3z"/>
				<path class="st4" d="M251.1,74.6c0,1,0.1,2.8,0.2,3.6h-3.9c-0.1-0.3-0.2-0.9-0.2-1.3c-0.7,1-1.9,1.5-3.4,1.5c-2.7,0-4-1.8-4-3.9
					c0-2.4,1.5-4.2,5.7-4.2c0.3,0,0.8,0,1.3,0v-1c0-0.8-0.2-1.3-1.2-1.3c-1,0-1.2,0.6-1.3,1.4h-4.1c0.1-2.1,1.4-4.1,5.5-4.1
					c3.7,0,5.3,1.4,5.3,4.2V74.6z M246.9,72.6c-0.3,0-0.6,0-0.9,0c-1.4,0-1.8,0.7-1.8,1.5c0,0.7,0.4,1.3,1.2,1.3
					c1.3,0,1.5-0.9,1.5-2.4V72.6z"/>
				<path class="st4" d="M253.5,69.8c0-2.2,0-3.6,0-4.3h4.3c0,0.4,0.1,1.4,0.1,2.2c0.4-1.3,1.5-2.5,3.6-2.5v4.3
					c-2.6,0-3.5,0.7-3.5,3.2v5.5h-4.4V69.8z"/>
				<path class="st4" d="M274.3,60.9v13.5c0,1.7,0,3.1,0,3.8h-4.2c-0.1-0.3-0.1-0.9-0.1-1.2c-0.6,1-1.5,1.5-3.2,1.5
					c-3.1,0-4.4-2.7-4.4-6.6c0-4,1.8-6.6,5-6.6c1.4,0,2.2,0.5,2.6,1v-5.3H274.3z M266.8,71.7c0,2.5,0.5,3.6,1.6,3.6
					c1.4,0,1.6-1,1.6-3.6c0-2.5-0.2-3.3-1.5-3.3C267.5,68.4,266.8,69.2,266.8,71.7z"/>
				<path class="st4" d="M280.1,74.1c0.1,0.9,0.6,1.4,1.6,1.4c0.8,0,1.2-0.3,1.2-0.9c0-0.7-0.5-0.9-2-1.3c-3.6-1-4.4-2.1-4.4-4.1
					c0-2,1.4-4,5.1-4c3.9,0,5.1,2.1,5.2,4h-3.9c0-0.6-0.3-1.3-1.3-1.3c-0.7,0-1,0.3-1,0.8c0,0.5,0.4,0.8,2.2,1.3
					c3.2,0.9,4.4,2.1,4.4,4.2c0,2.6-1.9,4.2-5.4,4.2c-3.7,0-5.3-1.8-5.5-4.3H280.1z"/>
				<path class="st3" d="M115.2,90.6h6.6c3.2,0,5.8,1.7,5.8,5.1c0,3.5-2.4,5.3-6.1,5.3h-1.9v6h-4.4V90.6z M119.7,97.8h1.4
					c1.4,0,2-0.6,2-2.1c0-1.3-0.7-1.9-2-1.9h-1.4V97.8z"/>
				<path class="st3" d="M140.2,103.5c0,1,0.1,2.8,0.2,3.6h-3.9c-0.1-0.3-0.2-0.9-0.2-1.3c-0.7,1-1.9,1.5-3.4,1.5
					c-2.7,0-4-1.8-4-3.9c0-2.4,1.5-4.2,5.7-4.2c0.3,0,0.8,0,1.3,0v-1c0-0.8-0.2-1.3-1.2-1.3c-1,0-1.2,0.6-1.3,1.4h-4.1
					c0.1-2.1,1.4-4.1,5.5-4.1c3.7,0,5.3,1.4,5.3,4.2V103.5z M136,101.5c-0.3,0-0.6,0-0.9,0c-1.4,0-1.8,0.7-1.8,1.5
					c0,0.7,0.4,1.3,1.2,1.3c1.3,0,1.5-0.9,1.5-2.4V101.5z"/>
				<path class="st3" d="M147.1,106.2v5.4h-4.4V98.1c0-1.7,0-2.8,0-3.7h4.3c0,0.4,0.1,0.9,0.1,1.4c0.4-0.7,1.3-1.6,3.2-1.6
					c2.5,0,4.4,1.9,4.4,6.4c0,4.7-2.3,6.8-4.9,6.8C148.4,107.4,147.5,107,147.1,106.2z M150.2,100.7c0-2.4-0.5-3.3-1.6-3.3
					c-1.3,0-1.6,0.7-1.6,3.4c0,2.5,0.3,3.5,1.5,3.5C149.6,104.2,150.2,103.2,150.2,100.7z"/>
				<path class="st3" d="M160.5,101.7c0,1.5,0.4,2.7,1.6,2.7c1,0,1.3-0.7,1.4-1.3h4.2c-0.4,1.6-1.5,4.3-5.7,4.3
					c-4.5,0-5.9-3.1-5.9-6.6c0-3.5,1.7-6.6,6-6.6c4.4,0,5.8,3,5.8,6.4c0,0.2,0,1,0,1.2H160.5z M163.5,99.2c0-1.2-0.3-2.2-1.5-2.2
					c-1.2,0-1.5,1-1.5,2.2H163.5z"/>
				<path class="st3" d="M169.7,98.7c0-2.2,0-3.6,0-4.3h4.3c0,0.4,0.1,1.4,0.1,2.2c0.4-1.3,1.5-2.5,3.6-2.5v4.3
					c-2.6,0-3.5,0.7-3.5,3.2v5.5h-4.4V98.7z"/>
				<path class="st3" d="M179.1,107.1V89.8h4.4v17.3H179.1z"/>
				<path class="st3" d="M189.8,101.7c0,1.5,0.4,2.7,1.6,2.7c1,0,1.3-0.7,1.4-1.3h4.2c-0.4,1.6-1.5,4.3-5.7,4.3
					c-4.5,0-5.9-3.1-5.9-6.6c0-3.5,1.7-6.6,6-6.6c4.4,0,5.8,3,5.8,6.4c0,0.2,0,1,0,1.2H189.8z M192.9,99.2c0-1.2-0.3-2.2-1.5-2.2
					c-1.2,0-1.5,1-1.5,2.2H192.9z"/>
				<path class="st3" d="M202.4,103.1c0.1,0.9,0.6,1.4,1.6,1.4c0.8,0,1.2-0.3,1.2-0.9c0-0.7-0.5-0.9-2-1.3c-3.6-1-4.4-2.1-4.4-4.1
					c0-2,1.4-4,5.1-4c3.9,0,5.1,2.1,5.2,4h-3.9c0-0.6-0.3-1.3-1.3-1.3c-0.7,0-1,0.3-1,0.8c0,0.5,0.4,0.8,2.2,1.3
					c3.2,0.9,4.4,2.1,4.4,4.2c0,2.6-1.9,4.2-5.4,4.2c-3.7,0-5.3-1.8-5.5-4.3H202.4z"/>
				<path class="st3" d="M214.5,103.1c0.1,0.9,0.6,1.4,1.6,1.4c0.8,0,1.2-0.3,1.2-0.9c0-0.7-0.5-0.9-2-1.3c-3.6-1-4.4-2.1-4.4-4.1
					c0-2,1.4-4,5.1-4c3.9,0,5.1,2.1,5.2,4h-3.9c0-0.6-0.3-1.3-1.3-1.3c-0.7,0-1,0.3-1,0.8c0,0.5,0.4,0.8,2.2,1.3
					c3.2,0.9,4.4,2.1,4.4,4.2c0,2.6-1.9,4.2-5.4,4.2c-3.7,0-5.3-1.8-5.5-4.3H214.5z"/>
				<path class="st3" d="M124.7,128.7c-0.2,3.5-1.9,7.5-6.1,7.5c-3.1,0-4.3-2.2-4.1-5.3c0.2-3.5,2.1-7.4,6.1-7.4
					C123.7,123.6,124.9,125.8,124.7,128.7z M116.6,131c-0.2,2.2,0.4,3.6,2.2,3.6c2.6,0,3.7-3.3,3.8-5.8c0.1-2-0.4-3.5-2.2-3.5
					C118,125.3,116.8,128.4,116.6,131z"/>
				<path class="st3" d="M128.2,134.5l-1.3,6.4h-2l2.9-13.4c0.4-1.7,0.6-2.9,0.7-3.6h1.9c0,0.4-0.2,1.2-0.3,1.8c0.7-1.2,1.8-2,3.5-2
					c2.3,0,3.6,1.7,3.3,5.1c-0.3,3.6-2,7.6-5.8,7.6C129.5,136.3,128.5,135.4,128.2,134.5z M134.8,128.9c0.2-2.5-0.6-3.6-2-3.6
					c-2,0-3.2,2-3.8,4.6c-0.6,2.9-0.2,4.7,2,4.7C133.6,134.6,134.7,131.2,134.8,128.9z"/>
				<path class="st3" d="M140.6,130.3c-0.1,0.5-0.2,1-0.2,1.5c0,1.6,0.6,2.8,2.2,2.8c1.8,0,2.4-1.3,2.8-2h2c-0.6,1.6-1.9,3.7-5,3.7
					c-3.2,0-4.1-2.4-3.9-5.2c0.2-3.4,2-7.5,6-7.5c2.9,0,4,2.1,3.8,4.6c0,0.5-0.2,1.4-0.3,2.1H140.6z M146.3,128.8
					c0.1-0.4,0.1-0.8,0.1-1.2c0-1.4-0.6-2.4-2.2-2.4c-1.8,0-2.9,1.8-3.4,3.6H146.3z"/>
				<path class="st3" d="M151.1,127.9c0.4-2,0.7-3.3,0.8-4.1h1.9c0,0.4-0.2,1.4-0.4,2.3c0.9-1.6,2.3-2.5,4.2-2.5l-0.5,2.1
					c-2.5,0.1-3.9,1.6-4.5,4.2l-1.3,6.1h-2L151.1,127.9z"/>
				<path class="st3" d="M165.7,133.3c-0.2,0.9-0.5,2.2-0.5,2.8h-1.9c0-0.4,0.1-0.9,0.3-1.5c-0.6,1-1.6,1.7-3.4,1.7
					c-2.3,0-3.2-1.7-3.1-3.4c0.1-2.5,1.9-3.8,5-4.1c0.9-0.1,1.6-0.1,2.8-0.2l0.2-0.8c0.3-1.4,0.1-2.7-1.9-2.7c-1.6,0-2.1,0.9-2.5,2
					h-2c0.4-1.9,1.6-3.5,4.6-3.5c2.7,0,4.3,1.2,3.6,4.4L165.7,133.3z M164.5,130.1c-0.8,0-1.6,0-2.3,0.1c-1.7,0.2-3,0.9-3.1,2.5
					c-0.1,1.1,0.4,2,1.8,2c2.2,0,3.1-1.8,3.5-3.9L164.5,130.1z"/>
				<path class="st3" d="M169.3,123.8h2l0.8-3.5h1.9l-0.8,3.5h2.4l-0.4,1.6h-2.4l-1.7,7.7c-0.2,1-0.1,1.5,1,1.5c0.5,0,1-0.1,1.2-0.2
					l-0.3,1.5c-0.5,0.2-1.3,0.3-1.7,0.3c-1.7,0-2.7-0.7-2.2-2.9l1.7-7.9H169L169.3,123.8z"/>
				<path class="st3" d="M177.5,123.8h2l-2.6,12.3h-2L177.5,123.8z M178.6,118.6h2l-0.6,2.6h-2L178.6,118.6z"/>
				<path class="st3" d="M190.8,128.7c-0.2,3.5-1.9,7.5-6.1,7.5c-3.1,0-4.3-2.2-4.1-5.3c0.2-3.5,2.1-7.4,6.1-7.4
					C189.8,123.6,191,125.8,190.8,128.7z M182.8,131c-0.2,2.2,0.4,3.6,2.2,3.6c2.6,0,3.7-3.3,3.8-5.8c0.1-2-0.4-3.5-2.2-3.5
					C184.1,125.3,182.9,128.4,182.8,131z"/>
				<path class="st3" d="M193.8,127.6c0.5-2.5,0.7-3.4,0.8-3.8h1.9c0,0.4-0.2,1.1-0.3,1.8c0.6-1,1.7-2,3.5-2c2.1,0,3.5,1.4,2.8,4.4
					l-1.7,8h-2l1.6-7.8c0.3-1.6,0.1-3-1.6-3c-1.9,0-3,1.5-3.5,4l-1.4,6.7h-2L193.8,127.6z"/>
				<path class="st3" d="M206,132.4c0,1.4,0.8,2.3,2.3,2.3c1.3,0,2.1-0.7,2.2-1.8c0.1-1-0.5-1.7-2.1-2.5c-2.1-1-3-1.9-2.9-3.6
					c0.1-1.8,1.5-3.2,3.9-3.2c2.9,0,3.9,1.9,3.8,3.6h-1.9c0-1.1-0.5-2.1-2.1-2.1c-1,0-1.8,0.5-1.8,1.5c-0.1,0.9,0.4,1.3,1.9,2.1
					c2.2,1.1,3.3,2.1,3.2,4c-0.1,2-1.5,3.5-4.4,3.5c-2.8,0-4.2-1.6-4.1-3.9H206z"/>
			</g>
		</g>
	</g>
</g>
<g>
	
		<image style="overflow:visible;opacity:0.67;" width="161" height="92" xlink:href="69F237AA.png"  transform="matrix(0.24 0 0 0.24 183.6 15.36)">
	</image>
	<g>
		
			<image style="overflow:visible;" width="2306" height="852" xlink:href="Zesco Logo.png"  transform="matrix(1.142730e-02 0 0 1.142730e-02 186.8243 19.5248)">
		</image>
	</g>
</g>
<g>
	
		<image style="overflow:visible;opacity:0.67;" width="763" height="384" xlink:href="69F237AC.png"  transform="matrix(0.24 0 0 0.24 107.52 54.72)">
	</image>
	<g>
		<g>
			<path class="st3" d="M123.5,71c0-2.5,0-6,0.1-8h-0.1c-0.6,3.5-1.5,9-2.5,13.2h-3.6c-0.7-4.1-1.7-9.6-2.2-13.2h-0.2
				c0.1,1.9,0.2,5.2,0.2,8.1v5.1h-4V59.7h6.4c0.6,2.9,1.4,7.7,1.7,10h0.1c0.4-2.6,1.3-6.6,2-10h6.3v16.5h-4.3V71z"/>
			<path class="st3" d="M141.9,69.6c0,4-1.8,6.8-6.2,6.8c-4.3,0-6-2.8-6-6.7c0-3.3,1.6-6.5,6.2-6.5
				C140.3,63.2,141.9,66.3,141.9,69.6z M134.2,69.7c0,2.6,0.5,3.7,1.7,3.7c1.1,0,1.6-1.1,1.6-3.7c0-2.5-0.4-3.4-1.6-3.4
				C134.7,66.3,134.2,67.2,134.2,69.7z"/>
			<path class="st3" d="M147.1,63.5c0.6,2.9,1.3,6.5,1.6,8.7h0.1c0.3-2.3,0.9-5.1,1.6-8.7h4.3l-3.7,12.7h-5l-3.6-12.7H147.1z"/>
			<path class="st3" d="M156.1,63.5h4.4v12.7h-4.4V63.5z M156.1,58.9h4.4V62h-4.4V58.9z"/>
			<path class="st3" d="M162.9,67.4c0-2.6,0-3.4,0-4h4.3c0,0.2,0.1,0.9,0.1,1.3c0.5-0.8,1.6-1.6,3.3-1.6c2.5,0,3.7,1.7,3.7,4.3v8.6
				h-4.4v-7.9c0-1.1-0.2-1.7-1.2-1.7c-0.9,0-1.3,0.5-1.3,2.1v7.6h-4.4V67.4z"/>
			<path class="st3" d="M188.1,74.7c0,4-1.5,6.2-6.1,6.2c-4.3,0-5.5-2.2-5.6-4.1h4.3c0.1,0.6,0.5,1.1,1.5,1.1c1.3,0,1.6-0.8,1.6-2.7
				v-0.9c-0.6,1-1.7,1.4-3.1,1.4c-3,0-4.5-2.4-4.5-6.1c0-4.1,2-6.5,4.8-6.5c1.8,0,2.6,0.6,2.9,1.3c0-0.3,0.1-0.8,0.1-1h4.1
				c0,0.7,0,2.2,0,4V74.7z M180.7,69.6c0,2.1,0.5,3.1,1.6,3.1c1.2,0,1.6-1,1.6-3.2c0-2.2-0.1-3.1-1.5-3.1
				C181.3,66.4,180.7,67.2,180.7,69.6z"/>
			<path class="st4" d="M194.1,63.5h1.6v-3.2h4.4v3.2h1.9v3.1H200v5.6c0,0.7,0.2,1.1,1.1,1.1c0.2,0,0.3,0,0.6,0V76
				c-0.7,0.2-1.9,0.3-2.4,0.3c-2.8,0-3.6-1-3.6-3.5v-6.2h-1.6V63.5z"/>
			<path class="st4" d="M215,69.6c0,4-1.8,6.8-6.2,6.8c-4.3,0-6.1-2.8-6.1-6.7c0-3.3,1.6-6.5,6.2-6.5C213.5,63.2,215,66.3,215,69.6z
				 M207.3,69.7c0,2.6,0.5,3.7,1.7,3.7c1.1,0,1.6-1.1,1.6-3.7c0-2.5-0.4-3.4-1.6-3.4C207.8,66.3,207.3,67.2,207.3,69.7z"/>
			<path class="st4" d="M220.4,63.5c0.6,4.3,1,7.2,1.2,8.6h0.1c0.2-1.8,0.8-4.8,1.4-8.6h4c0.5,3.2,1.2,6.8,1.4,8.6h0.1
				c0.2-1.3,0.5-4.1,1.3-8.6h4.3l-3.3,12.7h-4.6c-0.6-3-1-5.4-1.2-7.3h-0.1c-0.2,1.7-0.8,4.6-1.4,7.3h-4.6l-3.2-12.7H220.4z"/>
			<path class="st4" d="M245.7,72.6c0,1,0.1,2.8,0.2,3.6H242c-0.1-0.3-0.2-0.9-0.2-1.3c-0.7,1-1.9,1.5-3.4,1.5c-2.7,0-4-1.8-4-3.9
				c0-2.4,1.5-4.2,5.7-4.2c0.3,0,0.8,0,1.3,0v-1c0-0.8-0.2-1.3-1.2-1.3c-1,0-1.2,0.6-1.3,1.4h-4.1c0.1-2.1,1.4-4.1,5.5-4.1
				c3.7,0,5.3,1.4,5.3,4.2V72.6z M241.5,70.6c-0.3,0-0.6,0-0.9,0c-1.4,0-1.8,0.7-1.8,1.5c0,0.7,0.4,1.3,1.2,1.3
				c1.3,0,1.5-0.9,1.5-2.4V70.6z"/>
			<path class="st4" d="M248.2,67.8c0-2.2,0-3.6,0-4.3h4.3c0,0.4,0.1,1.4,0.1,2.2c0.4-1.3,1.5-2.5,3.6-2.5v4.3
				c-2.6,0-3.5,0.7-3.5,3.2v5.5h-4.4V67.8z"/>
			<path class="st4" d="M269,58.9v13.5c0,1.7,0,3.1,0,3.8h-4.2c-0.1-0.3-0.1-0.9-0.1-1.2c-0.6,1-1.5,1.5-3.2,1.5
				c-3.1,0-4.4-2.7-4.4-6.6c0-4,1.8-6.6,5-6.6c1.4,0,2.2,0.5,2.6,1v-5.3H269z M261.5,69.7c0,2.5,0.5,3.6,1.6,3.6
				c1.4,0,1.6-1,1.6-3.6c0-2.5-0.2-3.3-1.5-3.3C262.2,66.4,261.5,67.2,261.5,69.7z"/>
			<path class="st4" d="M274.7,72.1c0.1,0.9,0.6,1.4,1.6,1.4c0.8,0,1.2-0.3,1.2-0.9c0-0.7-0.5-0.9-2-1.3c-3.6-1-4.4-2.1-4.4-4.1
				c0-2,1.4-4,5.1-4c3.9,0,5.1,2.1,5.2,4h-3.9c0-0.6-0.3-1.3-1.3-1.3c-0.7,0-1,0.3-1,0.8c0,0.5,0.4,0.8,2.2,1.3
				c3.2,0.9,4.4,2.1,4.4,4.2c0,2.6-1.9,4.2-5.4,4.2c-3.7,0-5.3-1.8-5.5-4.3H274.7z"/>
			<path class="st3" d="M111.2,88.6h6.6c3.2,0,5.8,1.7,5.8,5.1c0,3.5-2.4,5.3-6.1,5.3h-1.9v6h-4.4V88.6z M115.7,95.8h1.4
				c1.4,0,2-0.6,2-2.1c0-1.3-0.7-1.9-2-1.9h-1.4V95.8z"/>
			<path class="st3" d="M135.7,101.5c0,1,0.1,2.8,0.2,3.6H132c-0.1-0.3-0.2-0.9-0.2-1.3c-0.7,1-1.9,1.5-3.4,1.5c-2.7,0-4-1.8-4-3.9
				c0-2.4,1.5-4.2,5.7-4.2c0.3,0,0.8,0,1.3,0v-1c0-0.8-0.2-1.3-1.2-1.3c-1,0-1.2,0.6-1.3,1.4h-4.1c0.1-2.1,1.4-4.1,5.5-4.1
				c3.7,0,5.3,1.4,5.3,4.2V101.5z M131.5,99.5c-0.3,0-0.6,0-0.9,0c-1.4,0-1.8,0.7-1.8,1.5c0,0.7,0.4,1.3,1.2,1.3
				c1.3,0,1.5-0.9,1.5-2.4V99.5z"/>
			<path class="st3" d="M142.6,104.2v5.4h-4.4V96.1c0-1.7,0-2.8,0-3.7h4.3c0,0.4,0.1,0.9,0.1,1.4c0.4-0.7,1.3-1.6,3.2-1.6
				c2.5,0,4.4,1.9,4.4,6.4c0,4.7-2.3,6.8-4.9,6.8C143.9,105.4,143,105,142.6,104.2z M145.7,98.7c0-2.4-0.5-3.3-1.6-3.3
				c-1.3,0-1.6,0.7-1.6,3.4c0,2.5,0.3,3.5,1.5,3.5C145.1,102.2,145.7,101.2,145.7,98.7z"/>
			<path class="st3" d="M156,99.7c0,1.5,0.4,2.7,1.6,2.7c1,0,1.3-0.7,1.4-1.3h4.2c-0.4,1.6-1.5,4.3-5.7,4.3c-4.5,0-5.9-3.1-5.9-6.6
				c0-3.5,1.7-6.6,6-6.6c4.4,0,5.8,3,5.8,6.4c0,0.2,0,1,0,1.2H156z M159.1,97.2c0-1.2-0.3-2.2-1.5-2.2c-1.2,0-1.5,1-1.5,2.2H159.1z"
				/>
			<path class="st3" d="M165.3,96.7c0-2.2,0-3.6,0-4.3h4.3c0,0.4,0.1,1.4,0.1,2.2c0.4-1.3,1.5-2.5,3.6-2.5v4.3
				c-2.6,0-3.5,0.7-3.5,3.2v5.5h-4.4V96.7z"/>
			<path class="st3" d="M174.8,105.1V87.8h4.4v17.3H174.8z"/>
			<path class="st3" d="M185.5,99.7c0,1.5,0.4,2.7,1.6,2.7c1,0,1.3-0.7,1.4-1.3h4.2c-0.4,1.6-1.5,4.3-5.7,4.3
				c-4.5,0-5.9-3.1-5.9-6.6c0-3.5,1.7-6.6,6-6.6c4.4,0,5.8,3,5.8,6.4c0,0.2,0,1,0,1.2H185.5z M188.5,97.2c0-1.2-0.3-2.2-1.5-2.2
				c-1.2,0-1.5,1-1.5,2.2H188.5z"/>
			<path class="st3" d="M198.1,101.1c0.1,0.9,0.6,1.4,1.6,1.4c0.8,0,1.2-0.3,1.2-0.9c0-0.7-0.5-0.9-2-1.3c-3.6-1-4.4-2.1-4.4-4.1
				c0-2,1.4-4,5.1-4c3.9,0,5.1,2.1,5.2,4h-3.9c0-0.6-0.3-1.3-1.3-1.3c-0.7,0-1,0.3-1,0.8c0,0.5,0.4,0.8,2.2,1.3
				c3.2,0.9,4.4,2.1,4.4,4.2c0,2.6-1.9,4.2-5.4,4.2c-3.7,0-5.3-1.8-5.5-4.3H198.1z"/>
			<path class="st3" d="M210.2,101.1c0.1,0.9,0.6,1.4,1.6,1.4c0.8,0,1.2-0.3,1.2-0.9c0-0.7-0.5-0.9-2-1.3c-3.6-1-4.4-2.1-4.4-4.1
				c0-2,1.4-4,5.1-4c3.9,0,5.1,2.1,5.2,4h-3.9c0-0.6-0.3-1.3-1.3-1.3c-0.7,0-1,0.3-1,0.8c0,0.5,0.4,0.8,2.2,1.3
				c3.2,0.9,4.4,2.1,4.4,4.2c0,2.6-1.9,4.2-5.4,4.2c-3.7,0-5.3-1.8-5.5-4.3H210.2z"/>
			<path class="st3" d="M120.7,126.7c-0.2,3.5-1.9,7.5-6.1,7.5c-3.1,0-4.3-2.2-4.1-5.3c0.2-3.5,2.1-7.4,6.1-7.4
				C119.7,121.6,120.9,123.8,120.7,126.7z M112.6,129c-0.2,2.2,0.4,3.6,2.2,3.6c2.6,0,3.7-3.3,3.8-5.8c0.1-2-0.4-3.5-2.2-3.5
				C114,123.3,112.8,126.4,112.6,129z"/>
			<path class="st3" d="M124.2,132.5l-1.3,6.4h-2l2.9-13.4c0.4-1.7,0.6-2.9,0.7-3.6h1.9c0,0.4-0.2,1.2-0.3,1.8c0.7-1.2,1.8-2,3.5-2
				c2.3,0,3.6,1.7,3.3,5.1c-0.3,3.6-2,7.6-5.8,7.6C125.5,134.3,124.6,133.4,124.2,132.5z M130.9,126.9c0.2-2.5-0.6-3.6-2-3.6
				c-2,0-3.2,2-3.8,4.6c-0.6,2.9-0.2,4.7,2,4.7C129.6,132.6,130.7,129.2,130.9,126.9z"/>
			<path class="st3" d="M136.8,128.3c-0.1,0.5-0.2,1-0.2,1.5c0,1.6,0.6,2.8,2.2,2.8c1.8,0,2.4-1.3,2.8-2h2c-0.6,1.6-1.9,3.7-5,3.7
				c-3.2,0-4.1-2.4-3.9-5.2c0.2-3.4,2-7.5,6-7.5c2.9,0,4,2.1,3.8,4.6c0,0.5-0.2,1.4-0.3,2.1H136.8z M142.5,126.8
				c0.1-0.4,0.1-0.8,0.1-1.2c0-1.4-0.6-2.4-2.2-2.4c-1.8,0-2.9,1.8-3.4,3.6H142.5z"/>
			<path class="st3" d="M147.3,125.9c0.4-2,0.7-3.3,0.8-4.1h1.9c0,0.4-0.2,1.4-0.4,2.3c0.9-1.6,2.3-2.5,4.2-2.5l-0.5,2.1
				c-2.5,0.1-3.9,1.6-4.5,4.2l-1.3,6.1h-2L147.3,125.9z"/>
			<path class="st3" d="M161.8,131.3c-0.2,0.9-0.5,2.2-0.5,2.8h-1.9c0-0.4,0.1-0.9,0.3-1.5c-0.6,1-1.6,1.7-3.4,1.7
				c-2.3,0-3.2-1.7-3.1-3.4c0.1-2.5,1.9-3.8,5-4.1c0.9-0.1,1.6-0.1,2.8-0.2l0.2-0.8c0.3-1.4,0.1-2.7-1.9-2.7c-1.6,0-2.1,0.9-2.5,2
				h-2c0.4-1.9,1.6-3.5,4.6-3.5c2.7,0,4.3,1.2,3.6,4.4L161.8,131.3z M160.6,128.1c-0.8,0-1.6,0-2.3,0.1c-1.7,0.2-3,0.9-3.1,2.5
				c-0.1,1.1,0.4,2,1.8,2c2.2,0,3.1-1.8,3.5-3.9L160.6,128.1z"/>
			<path class="st3" d="M165.3,121.8h2l0.8-3.5h1.9l-0.8,3.5h2.4l-0.4,1.6h-2.4l-1.7,7.7c-0.2,1-0.1,1.5,1,1.5c0.5,0,1-0.1,1.2-0.2
				l-0.3,1.5c-0.5,0.2-1.3,0.3-1.7,0.3c-1.7,0-2.7-0.7-2.2-2.9l1.7-7.9H165L165.3,121.8z"/>
			<path class="st3" d="M173.8,121.8h2l-2.6,12.3h-2L173.8,121.8z M174.8,116.6h2l-0.6,2.6h-2L174.8,116.6z"/>
			<path class="st3" d="M187.1,126.7c-0.2,3.5-1.9,7.5-6.1,7.5c-3.1,0-4.3-2.2-4.1-5.3c0.2-3.5,2.1-7.4,6.1-7.4
				C186.1,121.6,187.3,123.8,187.1,126.7z M179,129c-0.2,2.2,0.4,3.6,2.2,3.6c2.6,0,3.7-3.3,3.8-5.8c0.1-2-0.4-3.5-2.2-3.5
				C180.4,123.3,179.1,126.4,179,129z"/>
			<path class="st3" d="M190.1,125.6c0.5-2.5,0.7-3.4,0.8-3.8h1.9c0,0.4-0.2,1.1-0.3,1.8c0.6-1,1.7-2,3.5-2c2.1,0,3.5,1.4,2.8,4.4
				l-1.7,8h-2l1.6-7.8c0.3-1.6,0.1-3-1.6-3c-1.9,0-3,1.5-3.5,4l-1.4,6.7h-2L190.1,125.6z"/>
			<path class="st3" d="M202.1,130.4c0,1.4,0.8,2.3,2.3,2.3c1.3,0,2.1-0.7,2.2-1.8c0.1-1-0.5-1.7-2.1-2.5c-2.1-1-3-1.9-2.9-3.6
				c0.1-1.8,1.5-3.2,3.9-3.2c2.9,0,3.9,1.9,3.8,3.6h-1.9c0-1.1-0.5-2.1-2.1-2.1c-1,0-1.8,0.5-1.8,1.5c-0.1,0.9,0.4,1.3,1.9,2.1
				c2.2,1.1,3.3,2.1,3.2,4c-0.1,2-1.5,3.5-4.4,3.5c-2.8,0-4.2-1.6-4.1-3.9H202.1z"/>
		</g>
	</g>
</g>
</svg>
