<svg id="Layer_1" data-name="Layer 1" xmlns="http://www.w3.org/2000/svg" viewBox="0 0 67.84 53.79"><defs><style>.cls-1{fill:#f49f37;}</style></defs><title>watch</title><path class="cls-1" d="M14.34,20.13a1.14,1.14,0,0,1,1.19.09l8,5.74a1.15,1.15,0,0,1,.26,1.6,1.33,1.33,0,0,1-.26.27l-8,5.74a1.16,1.16,0,0,1-1.82-.94V21.15A1.14,1.14,0,0,1,14.34,20.13Z"/><path class="cls-1" d="M27,28.43l-.89-3.59h.94a25.65,25.65,0,0,1,.46,2.67h0c.15-.72.44-1.82.64-2.67H29c.17.68.49,1.91.61,2.63h0c.11-.81.42-2.11.52-2.63H31l-.94,3.59h-.92c-.18-.78-.44-1.77-.58-2.44h0c-.14.67-.42,1.74-.59,2.44Z"/><path class="cls-1" d="M33.44,27.69a5.72,5.72,0,0,0,0,.74h-.81a1.09,1.09,0,0,1,0-.25.81.81,0,0,1-.75.31.85.85,0,0,1-.94-.86c0-.62.5-.91,1.31-.91h.36v-.15c0-.18-.07-.34-.37-.34s-.34.12-.37.3h-.8c0-.49.34-.89,1.2-.88s1.17.3,1.17,1Zm-.83-.48h-.27c-.41,0-.55.14-.55.37a.31.31,0,0,0,.35.32c.42,0,.47-.29.47-.61Z"/><path class="cls-1" d="M33.78,25.71h.4V25H35v.72h.51v.62H35v1.26c0,.19.06.26.28.26h.15v.57a1.66,1.66,0,0,1-.54.06c-.57,0-.75-.3-.75-.79V26.33h-.4Z"/><path class="cls-1" d="M38.39,27.53a1.15,1.15,0,0,1-1.27,1,1.25,1.25,0,0,1-1.31-1.4,1.33,1.33,0,0,1,1.35-1.44,1.11,1.11,0,0,1,1.23,1h-.83a.38.38,0,0,0-.41-.34c-.3,0-.47.27-.47.77s.18.8.47.8a.4.4,0,0,0,.4-.33Z"/><path class="cls-1" d="M39.67,24.63V26a.9.9,0,0,1,.77-.36c.53,0,.9.32.9,1v1.75h-.85V26.8c0-.32-.1-.48-.39-.48s-.43.29-.43.67v1.44h-.86v-3.8Z"/><path class="cls-1" d="M43.3,28.43V24.84h1.09c.42.8,1.13,2.12,1.29,2.52h0c0-.36,0-1,0-1.58v-.94h.8v3.59h-1c-.35-.68-1.17-2.23-1.34-2.66h0c0,.3,0,1.05,0,1.69v1Z"/><path class="cls-1" d="M49.73,27.07a1.31,1.31,0,0,1-1.39,1.42A1.3,1.3,0,0,1,47,27.08a1.38,1.38,0,1,1,2.76,0Zm-1.89,0c0,.51.19.78.51.78s.51-.27.51-.77-.19-.79-.52-.79S47.84,26.51,47.84,27.07Z"/><path class="cls-1" d="M50.83,25.71c.22,1,.33,1.63.38,2h0c.06-.33.11-.71.41-2h.79c.27,1.25.35,1.65.39,2h0c0-.28.13-.71.41-2h.84l-.79,2.72h-.92c-.2-1-.3-1.45-.36-1.83h0c0,.35-.16.91-.37,1.83h-.92l-.76-2.72Z"/></svg>